<svg xmlns="http://www.w3.org/2000/svg" viewBox="0 0 568.76 130.56"><defs><style>.cls-1{fill:#fff;}</style></defs><title>th-logo-weiss</title><g id="Ebene_2" data-name="Ebene 2"><g id="Artwork"><polygon class="cls-1" points="193.31 18.58 177.26 18.58 177.26 58.95 167.05 58.95 167.05 18.58 151.07 18.58 151.07 9.58 193.31 9.58 193.31 18.58"/><path class="cls-1" d="M244,34.37c0,14.71-10.88,25.46-25.39,25.46s-25.32-10.75-25.32-25.46S204.06,8.71,218.63,8.71,244,19.52,244,34.37m-40.37,0c0,9.4,6.18,16.12,15,16.12s15-6.72,15-16.12S227.43,18,218.63,18s-15,6.78-15,16.32"/><path class="cls-1" d="M285.73,25.57a15.05,15.05,0,0,1-9.07,14.24l11.49,19.14h-12l-10.34-17.4h-6.78v17.4H248.85V9.58H268.2c9.47,0,17.53,5.78,17.53,16m-26.66-7.12V32.69h8.19c4.84,0,8.06-2.48,8.06-7.12s-3.22-7.12-8.06-7.12Z"/><path class="cls-1" d="M326.16,22.95a11.11,11.11,0,0,1-4.77,9.54c5,1.75,8.8,5.24,8.8,12.09,0,9.2-7.25,14.37-16.39,14.37H291.43V9.58h19.08c9.81,0,15.65,5,15.65,13.37m-24.52-4V29.73h7.79c3.9,0,6.45-2.15,6.45-5.44s-2.48-5.37-6.72-5.37Zm0,18.94V49.61h10.88c4.43,0,7.25-2,7.25-5.84s-2.75-5.91-7.52-5.91Z"/><polygon class="cls-1" points="366.72 18.92 345.09 18.92 345.09 29.6 363.83 29.6 363.83 38.26 345.09 38.26 345.09 49.61 367.25 49.61 367.25 58.95 334.81 58.95 334.81 9.58 366.72 9.58 366.72 18.92"/><polygon class="cls-1" points="412.25 59.82 411.99 59.82 382.83 31.41 382.83 58.95 372.56 58.95 372.56 8.71 372.83 8.71 401.98 37.12 401.98 9.58 412.25 9.58 412.25 59.82"/><polygon class="cls-1" points="192.33 120.8 182.12 120.8 182.12 100.19 162.11 100.19 162.11 120.8 151.83 120.8 151.83 71.44 162.11 71.44 162.11 90.85 182.12 90.85 182.12 71.44 192.33 71.44 192.33 120.8"/><polygon class="cls-1" points="230.75 80.77 209.12 80.77 209.12 91.45 227.86 91.45 227.86 100.12 209.12 100.12 209.12 111.47 231.28 111.47 231.28 120.8 198.84 120.8 198.84 71.44 230.75 71.44 230.75 80.77"/><rect class="cls-1" x="236.59" y="71.44" width="10.28" height="49.36"/><path class="cls-1" d="M297.37,96.09c0,15.58-10,24.72-27,24.72H254.65V71.44h15.72c16.86,0,27,9.07,27,24.65M264.93,80.84v30.63H270c11.15,0,16.93-5.64,16.93-15.31S281.12,80.84,270,80.84Z"/><polygon class="cls-1" points="334.1 80.77 312.48 80.77 312.48 91.45 331.22 91.45 331.22 100.12 312.48 100.12 312.48 111.47 334.64 111.47 334.64 120.8 302.2 120.8 302.2 71.44 334.1 71.44 334.1 80.77"/><polygon class="cls-1" points="379.64 121.68 379.37 121.68 350.22 93.27 350.22 120.8 339.94 120.8 339.94 70.57 340.21 70.57 369.36 98.98 369.36 71.44 379.64 71.44 379.64 121.68"/><path class="cls-1" d="M424.3,87.42a15.05,15.05,0,0,1-9.07,14.24l11.49,19.14h-12l-10.34-17.39h-6.78V120.8H387.43V71.44h19.34c9.47,0,17.53,5.78,17.53,16M397.63,80.3V94.54h8.19c4.84,0,8.06-2.48,8.06-7.12s-3.22-7.12-8.06-7.12Z"/><polygon class="cls-1" points="461.91 80.77 440.28 80.77 440.28 91.45 459.02 91.45 459.02 100.12 440.28 100.12 440.28 111.47 462.44 111.47 462.44 120.8 430 120.8 430 71.44 461.91 71.44 461.91 80.77"/><rect class="cls-1" x="467.75" y="71.44" width="10.28" height="49.36"/><path class="cls-1" d="M526.11,78l-6.45,7.46a14.66,14.66,0,0,0-11.42-5.51c-9.07,0-15,6.78-15,16.19s5.91,16.25,15,16.25a14.73,14.73,0,0,0,11.55-5.64l6.38,7.46c-4.9,5.37-10.75,7.52-17.93,7.52-14.84,0-25.32-10.95-25.32-25.59s10.48-25.52,25.32-25.52c7.79,0,13.1,2.48,17.87,7.39"/><polygon class="cls-1" points="568.76 120.8 558.55 120.8 558.55 100.19 538.53 100.19 538.53 120.8 528.26 120.8 528.26 71.44 538.53 71.44 538.53 90.85 558.55 90.85 558.55 71.44 568.76 71.44 568.76 120.8"/><path class="cls-1" d="M130.56,130.56H0V0H130.56ZM9.72,120.84H120.84V9.72H9.72Z"/><polygon class="cls-1" points="89.75 26.15 71.82 26.15 71.82 40.8 58.74 49.21 58.74 26.15 40.81 26.15 29.09 33.68 29.09 115.31 58.74 96.17 58.74 73.19 41.52 84.26 41.52 68.69 89.04 38.13 89.04 53.7 71.82 64.78 71.82 96.18 89.75 96.18 101.47 88.63 101.47 18.59 89.75 26.15"/></g></g></svg>